<svg width="21" height="21" viewBox="0 0 21 21" fill="none" xmlns="http://www.w3.org/2000/svg">
<path d="M16.1002 13.8837C15.8529 14.4759 15.5492 15.0428 15.1932 15.5767C14.6042 16.4767 13.7742 17.5897 12.7442 17.5997C11.8302 17.6087 11.5952 17.0047 10.3542 17.0117C9.11318 17.0187 8.85418 17.6117 7.94018 17.6017C6.91118 17.5927 6.12418 16.5837 5.53518 15.6867C3.88818 13.1797 3.71518 10.2367 4.73518 8.67274C5.04208 8.16213 5.46945 7.73452 5.9799 7.42735C6.49035 7.12018 7.0683 6.9428 7.66318 6.91074C8.75318 6.91074 9.43918 7.51074 10.3412 7.51074C11.2162 7.51074 11.7492 6.91074 13.0102 6.91074C13.534 6.93452 14.0461 7.07368 14.5099 7.31829C14.9737 7.56289 15.3777 7.9069 15.6932 8.32574C15.1803 8.60965 14.7595 9.03451 14.4805 9.55006C14.2014 10.0656 14.0759 10.6503 14.1187 11.2349C14.1615 11.8196 14.3709 12.3797 14.722 12.8492C15.0732 13.3186 15.5514 13.6776 16.1002 13.8837Z" stroke="#171A1F" stroke-linecap="round" stroke-linejoin="round"/>
<path d="M12.7004 4.80175C13.0087 4.42842 13.2395 3.99732 13.3791 3.53369C13.5187 3.07007 13.5643 2.58325 13.5134 2.10175C12.5235 2.219 11.615 2.70756 10.9714 3.46875C10.6555 3.82448 10.4182 4.24287 10.275 4.69658C10.1318 5.15029 10.0859 5.62911 10.1404 6.10175C10.6371 6.0901 11.1249 5.96728 11.568 5.74231C12.011 5.51734 12.3979 5.19594 12.7004 4.80175Z" fill="#171A1F"/>
</svg>
