<svg width="21" height="21" viewBox="0 0 21 21" fill="none" xmlns="http://www.w3.org/2000/svg">
<path d="M10.6006 17.6017C14.7427 17.6017 18.1006 14.2439 18.1006 10.1017C18.1006 5.95961 14.7427 2.60175 10.6006 2.60175C6.45845 2.60175 3.10059 5.95961 3.10059 10.1017C3.10059 14.2439 6.45845 17.6017 10.6006 17.6017Z" stroke="#323842" stroke-linecap="round" stroke-linejoin="round"/>
<path d="M10.6035 15.1017C11.1558 15.1017 11.6035 14.654 11.6035 14.1017C11.6035 13.5495 11.1558 13.1017 10.6035 13.1017C10.0512 13.1017 9.60352 13.5495 9.60352 14.1017C9.60352 14.654 10.0512 15.1017 10.6035 15.1017Z" fill="#323842"/>
<path d="M9.10059 5.67875C10.0536 4.81875 12.1186 4.83375 12.5236 6.31375C13.0536 8.23575 10.6006 8.24375 10.6006 11.1018" stroke="#323842" stroke-linecap="round" stroke-linejoin="round"/>
</svg>
