<svg width="21" height="21" viewBox="0 0 21 21" fill="none" xmlns="http://www.w3.org/2000/svg">
<path d="M17.7924 8.73824L10.6334 8.73824V11.8062L14.6909 11.8062C14.0409 13.8517 12.4409 14.5337 10.6009 14.5337C9.88801 14.5347 9.18543 14.3636 8.55275 14.0351C7.92007 13.7066 7.37597 13.2304 6.96661 12.6468C6.55725 12.0631 6.29472 11.3894 6.20128 10.6826C6.10785 9.97591 6.18627 9.25708 6.42989 8.58712C6.67352 7.91716 7.07515 7.31586 7.60073 6.83423C8.1263 6.3526 8.7603 6.00486 9.44892 5.82051C10.1376 5.63615 10.8605 5.62064 11.5564 5.77527C12.2523 5.9299 12.9006 6.25011 13.4464 6.70874L15.6759 4.58524C14.7781 3.75829 13.692 3.16296 12.5119 2.85093C11.3319 2.53891 10.0935 2.51962 8.90428 2.79474C7.71507 3.06986 6.61098 3.63107 5.68785 4.42966C4.76472 5.22825 4.05046 6.24009 3.60706 7.37733C3.16366 8.51456 3.00453 9.74284 3.14348 10.9555C3.28243 12.1682 3.71527 13.3287 4.40441 14.3361C5.09355 15.3436 6.01817 16.1676 7.09801 16.7367C8.17785 17.3058 9.38027 17.6027 10.6009 17.6017C14.7364 17.6017 18.4744 14.8742 17.7924 8.73824Z" fill="#DB4437"/>
</svg>
