<svg width="33" height="33" viewBox="0 0 33 33" fill="none" xmlns="http://www.w3.org/2000/svg">
<g clip-path="url(#clip0_1_48)">
<mask id="mask0_1_48" style="mask-type:luminance" maskUnits="userSpaceOnUse" x="0" y="0" width="33" height="33">
<path d="M32.6006 0.101746H0.600586V32.1017H32.6006V0.101746Z" fill="white"/>
</mask>
<g mask="url(#mask0_1_48)">
<path d="M21.2106 0.101746H28.441V7.33215C28.441 8.97904 27.7867 10.5585 26.6223 11.723C25.4578 12.8875 23.8783 13.5417 22.2314 13.5417H15.001V6.31135C15.001 4.66445 15.6552 3.08503 16.8197 1.9205C17.9842 0.75597 19.5637 0.101746 21.2106 0.101746Z" fill="#00BDD6"/>
</g>
<mask id="mask1_1_48" style="mask-type:luminance" maskUnits="userSpaceOnUse" x="0" y="0" width="33" height="33">
<path d="M32.5996 0.104553H0.599609V32.1046H32.5996V0.104553Z" fill="white"/>
</mask>
<g mask="url(#mask1_1_48)">
<path d="M20.4585 4.62546H24.3172V8.48416C24.3172 9.36307 23.9681 10.206 23.3465 10.8275C22.725 11.4489 21.8821 11.7981 21.0033 11.7981H17.1445V7.93938C17.1445 7.06048 17.4937 6.21757 18.1151 5.59608C18.7365 4.97461 19.5796 4.62546 20.4585 4.62546Z" fill="white"/>
</g>
<mask id="mask2_1_48" style="mask-type:luminance" maskUnits="userSpaceOnUse" x="0" y="0" width="33" height="33">
<path d="M32.6006 0.101746H0.600586V32.1017H32.6006V0.101746Z" fill="white"/>
</mask>
<g mask="url(#mask2_1_48)">
<path d="M14.0408 13.5418H8.53198C7.91067 13.5418 7.29544 13.4194 6.72144 13.1816C6.14742 12.9439 5.62585 12.5954 5.18653 12.156C4.74718 11.7167 4.39869 11.1951 4.16093 10.6211C3.92317 10.0471 3.80078 9.43187 3.80078 8.81056V3.30176H9.30958C10.5644 3.30176 11.7678 3.80022 12.655 4.6875C13.5423 5.57477 14.0408 6.77816 14.0408 8.03296V13.5418Z" fill="#00BDD6"/>
</g>
<mask id="mask3_1_48" style="mask-type:luminance" maskUnits="userSpaceOnUse" x="0" y="0" width="33" height="33">
<path d="M32.6045 0.101349H0.604492V32.1013H32.6045V0.101349Z" fill="white"/>
</mask>
<g mask="url(#mask3_1_48)">
<path d="M12.1831 11.7949H9.6627C9.37845 11.7949 9.09696 11.7389 8.83433 11.6301C8.57169 11.5213 8.33307 11.3619 8.13206 11.1609C7.93105 10.9599 7.77161 10.7212 7.66283 10.4586C7.55405 10.196 7.49805 9.91449 7.49805 9.63022V7.1098H10.0185C10.5926 7.1098 11.1432 7.33785 11.5491 7.7438C11.9551 8.14975 12.1831 8.70035 12.1831 9.27446V11.7949Z" fill="white"/>
</g>
<mask id="mask4_1_48" style="mask-type:luminance" maskUnits="userSpaceOnUse" x="0" y="0" width="33" height="33">
<path d="M32.6006 0.101746H0.600586V32.1017H32.6006V0.101746Z" fill="white"/>
</mask>
<g mask="url(#mask4_1_48)">
<path d="M6.81019 14.5017H14.0406V21.7321C14.0406 23.379 13.3864 24.9585 12.2218 26.123C11.0573 27.2875 9.47788 27.9417 7.83099 27.9417H0.600586V20.7113C0.600586 19.0645 1.25481 17.4849 2.41934 16.3205C3.58387 15.156 5.16329 14.5017 6.81019 14.5017Z" fill="#8353E2"/>
</g>
<mask id="mask5_1_48" style="mask-type:luminance" maskUnits="userSpaceOnUse" x="0" y="0" width="33" height="33">
<path d="M32.5957 0.105347H0.595703V32.1053H32.5957V0.105347Z" fill="white"/>
</mask>
<g mask="url(#mask5_1_48)">
<path d="M8.36115 16.4868H12.1748V20.3004C12.1748 21.169 11.8297 22.0021 11.2155 22.6164C10.6013 23.2306 9.76821 23.5756 8.89957 23.5756H5.08594V19.762C5.08594 18.8933 5.43101 18.0604 6.04523 17.4461C6.65946 16.8319 7.49251 16.4868 8.36115 16.4868Z" fill="white"/>
</g>
<mask id="mask6_1_48" style="mask-type:luminance" maskUnits="userSpaceOnUse" x="0" y="0" width="33" height="33">
<path d="M32.6006 0.101746H0.600586V32.1017H32.6006V0.101746Z" fill="white"/>
</mask>
<g mask="url(#mask6_1_48)">
<path d="M32.601 32.1017H23.1322C20.9757 32.1017 18.9074 31.2451 17.3826 29.7201C15.8576 28.1953 15.001 26.127 15.001 23.9705V14.5017H24.4698C26.6263 14.5017 28.6946 15.3584 30.2194 16.8833C31.7443 18.4081 32.601 20.4765 32.601 22.6329V32.1017Z" fill="#8353E2"/>
</g>
<mask id="mask7_1_48" style="mask-type:luminance" maskUnits="userSpaceOnUse" x="0" y="0" width="33" height="33">
<path d="M32.5996 0.10376H0.599609V32.1038H32.5996V0.10376Z" fill="white"/>
</mask>
<g mask="url(#mask7_1_48)">
<path d="M27.3581 26.699H21.8633C20.6117 26.699 19.4116 26.2018 18.5266 25.3169C17.6417 24.4319 17.1445 23.2318 17.1445 21.9802V16.4852H22.6394C23.8909 16.4852 25.0911 16.9825 25.9761 17.8673C26.861 18.7522 27.3581 19.9526 27.3581 21.2039V26.699Z" fill="white"/>
</g>
</g>
<defs>
<clipPath id="clip0_1_48">
<rect width="32" height="32" fill="white" transform="translate(0.600586 0.101746)"/>
</clipPath>
</defs>
</svg>
