<svg width="21" height="21" viewBox="0 0 21 21" fill="none" xmlns="http://www.w3.org/2000/svg">
<path d="M15.6006 17.6017L5.60059 17.6017C4.77259 17.6017 4.10059 16.9297 4.10059 16.1017L4.10059 11.1017C4.10059 10.2737 4.77259 9.60175 5.60059 9.60175L15.6006 9.60175C16.4286 9.60175 17.1006 10.2737 17.1006 11.1017V16.1017C17.1006 16.9297 16.4286 17.6017 15.6006 17.6017Z" stroke="#9095A0" stroke-linecap="round" stroke-linejoin="round"/>
<path d="M7.10059 7.60175V6.10175C7.10059 4.16875 8.66759 2.60175 10.6006 2.60175C12.5336 2.60175 14.1006 4.16875 14.1006 6.10175V7.60175" stroke="#9095A0" stroke-linecap="round" stroke-linejoin="round"/>
<path d="M10.6006 15.1017C11.429 15.1017 12.1006 14.4302 12.1006 13.6017C12.1006 12.7733 11.429 12.1017 10.6006 12.1017C9.77216 12.1017 9.10059 12.7733 9.10059 13.6017C9.10059 14.4302 9.77216 15.1017 10.6006 15.1017Z" stroke="#9095A0" stroke-linecap="round" stroke-linejoin="round"/>
</svg>
