<svg width="21" height="21" viewBox="0 0 21 21" fill="none" xmlns="http://www.w3.org/2000/svg">
<path d="M10.6007 3.85175C6.43408 3.85175 2.87575 6.44341 1.43408 10.1017C2.87575 13.7601 6.43408 16.3517 10.6007 16.3517C14.7674 16.3517 18.3257 13.7601 19.7674 10.1017C18.3257 6.44341 14.7674 3.85175 10.6007 3.85175ZM10.6007 14.2684C8.30075 14.2684 6.43408 12.4017 6.43408 10.1017C6.43408 7.80175 8.30075 5.93508 10.6007 5.93508C12.9007 5.93508 14.7674 7.80175 14.7674 10.1017C14.7674 12.4017 12.9007 14.2684 10.6007 14.2684ZM10.6007 7.60175C9.21741 7.60175 8.10075 8.71841 8.10075 10.1017C8.10075 11.4851 9.21741 12.6017 10.6007 12.6017C11.9841 12.6017 13.1007 11.4851 13.1007 10.1017C13.1007 8.71841 11.9841 7.60175 10.6007 7.60175Z" fill="#9095A0"/>
</svg>
